<?xml version="1.0" standalone="no"?>
<!DOCTYPE svg PUBLIC "-//W3C//DTD SVG 20010904//EN"
 "http://www.w3.org/TR/2001/REC-SVG-20010904/DTD/svg10.dtd">
<svg version="1.0" xmlns="http://www.w3.org/2000/svg"
 width="512.000000pt" height="512.000000pt" viewBox="0 0 512.000000 512.000000"
 preserveAspectRatio="xMidYMid meet">

<g transform="translate(0.000000,512.000000) scale(0.100000,-0.100000)"
fill="#000000" stroke="none">
<path d="M0 2560 l0 -2560 2560 0 2560 0 0 2560 0 2560 -2560 0 -2560 0 0
-2560z m2215 1136 c167 -29 291 -91 400 -200 103 -103 175 -254 175 -369 l0
-38 -67 3 -66 3 -14 70 c-8 39 -23 90 -34 113 -88 202 -314 313 -604 299 -192
-9 -330 -63 -439 -171 -75 -73 -112 -145 -126 -242 -24 -172 35 -285 190 -369
l65 -35 -126 0 -127 0 -35 39 c-69 77 -98 161 -98 286 0 111 12 169 57 263 60
124 186 240 329 299 44 18 146 44 225 56 61 10 222 6 295 -7z m1605 -476 l0
-460 -60 0 -60 0 0 460 0 460 60 0 60 0 0 -460z m-1948 -567 c18 -16 25 -43
10 -43 -4 0 -15 9 -25 20 -20 23 -46 26 -72 6 -28 -20 -12 -44 40 -57 44 -11
75 -39 75 -66 0 -26 -39 -53 -78 -53 -41 0 -82 23 -82 46 0 20 14 18 35 -6 21
-24 67 -26 85 -5 19 23 5 43 -42 56 -44 12 -78 41 -78 65 0 46 93 72 132 37z
m242 -81 c41 -111 41 -112 23 -112 -7 0 -18 14 -24 30 -10 26 -16 30 -51 30
-35 0 -41 -3 -51 -30 -5 -16 -17 -30 -25 -30 -11 0 -7 21 20 97 19 53 37 100
40 105 16 25 35 -1 68 -90z m146 53 l0 -45 55 0 55 0 0 45 c0 33 4 45 15 45
12 0 15 -18 15 -105 0 -87 -3 -105 -15 -105 -11 0 -15 12 -15 51 l0 50 -52 -3
-53 -3 -3 -47 c-2 -34 -7 -48 -18 -48 -11 0 -14 19 -14 98 0 54 3 102 7 105
16 16 23 4 23 -38z m270 -60 c0 -87 -3 -105 -15 -105 -12 0 -15 18 -15 105 0
87 3 105 15 105 12 0 15 -18 15 -105z m130 10 l0 -95 45 0 c25 0 45 -4 45 -10
0 -6 -27 -10 -60 -10 l-60 0 0 105 c0 87 3 105 15 105 12 0 15 -17 15 -95z
m350 6 c0 -49 -3 -96 -6 -105 -8 -21 -74 -22 -74 -1 0 9 8 14 23 12 21 -2 22
1 25 91 2 73 6 92 17 92 12 0 15 -18 15 -89z m184 81 c3 -5 21 -52 40 -105 25
-70 31 -97 22 -97 -8 0 -19 14 -26 30 -11 26 -17 30 -52 30 -35 0 -41 -4 -51
-30 -6 -16 -17 -30 -24 -30 -17 0 -18 -6 23 109 33 92 52 118 68 93z m186 -97
c0 -87 -3 -105 -15 -105 -12 0 -15 18 -15 105 0 87 3 105 15 105 12 0 15 -18
15 -105z m175 29 l50 -75 3 76 c2 58 6 75 17 75 12 0 15 -20 15 -105 0 -78 -3
-105 -12 -105 -7 1 -35 34 -63 75 -27 41 -53 75 -57 75 -5 0 -8 -34 -8 -75 0
-43 -4 -75 -10 -75 -6 0 -10 42 -10 105 0 77 3 105 13 105 6 0 35 -34 62 -76z
m-801 -296 c59 -108 71 -157 71 -303 0 -111 -3 -139 -22 -187 -81 -208 -260
-336 -535 -384 -143 -25 -383 -15 -502 20 -250 75 -422 223 -497 426 -43 120
-43 122 36 118 l66 -3 23 -66 c60 -171 210 -300 422 -361 68 -20 101 -23 244
-23 142 0 176 4 245 23 129 37 202 78 277 152 88 88 110 136 116 261 7 149
-31 254 -125 346 l-45 43 96 0 95 0 35 -62z m1063 -250 c-3 -252 -7 -325 -21
-373 -34 -122 -91 -197 -180 -237 -46 -21 -65 -23 -196 -23 -141 1 -147 2
-225 33 -44 18 -84 37 -88 42 -8 7 8 113 20 132 2 4 40 -10 83 -32 100 -50
192 -67 281 -51 176 30 208 124 209 604 l0 217 61 0 61 0 -5 -312z"/>
<path d="M2051 2608 c-25 -68 -25 -68 13 -68 l35 0 -16 45 c-8 25 -17 45 -19
45 -3 0 -8 -10 -13 -22z"/>
<path d="M3161 2599 c-17 -50 -14 -59 19 -59 17 0 30 4 30 9 0 12 -29 81 -34
81 -2 0 -9 -14 -15 -31z"/>
</g>
</svg>
